<?xml version="1.0" encoding="iso-8859-1"?>
<!-- Generator: Adobe Illustrator 19.0.0, SVG Export Plug-In . SVG Version: 6.00 Build 0)  -->
<svg version="1.1" id="Capa_1" xmlns="http://www.w3.org/2000/svg" xmlns:xlink="http://www.w3.org/1999/xlink" x="0px" y="0px"
	 viewBox="0 0 512 512" style="enable-background:new 0 0 512 512;" xml:space="preserve">
<g>
	<g>
		<path style="fill:#7E5C62;" d="M488,168H24c-4.422,0-8,3.578-8,8v256c0,13.234,10.766,24,24,24h432c13.234,0,24-10.766,24-24V176
			C496,171.578,492.422,168,488,168z"/>
	</g>
	<g>
		<path style="fill:#9E6459;" d="M488,56H24C10.766,56,0,66.766,0,80v88c0,8.82,7.18,16,16,16h480c8.82,0,16-7.18,16-16V80
			C512,66.766,501.234,56,488,56z"/>
	</g>
	<g>
		<path style="fill:#5C546A;" d="M331,256H181c-11.598,0-21-9.402-21-21v-6c0-11.598,9.402-21,21-21h150c11.598,0,21,9.402,21,21v6
			C352,246.598,342.598,256,331,256z"/>
	</g>
	<g>
		<g>
			<path style="fill:#5C546A;" d="M48,160H32c-4.422,0-8-3.582-8-8s3.578-8,8-8h16c4.422,0,8,3.582,8,8S52.422,160,48,160z"/>
		</g>
	</g>
	<g>
		<g>
			<path style="fill:#5C546A;" d="M96,160H80c-4.422,0-8-3.582-8-8s3.578-8,8-8h16c4.422,0,8,3.582,8,8S100.422,160,96,160z"/>
		</g>
	</g>
	<g>
		<g>
			<path style="fill:#5C546A;" d="M144,160h-16c-4.422,0-8-3.582-8-8s3.578-8,8-8h16c4.422,0,8,3.582,8,8S148.422,160,144,160z"/>
		</g>
	</g>
	<g>
		<g>
			<path style="fill:#5C546A;" d="M192,160h-16c-4.422,0-8-3.582-8-8s3.578-8,8-8h16c4.422,0,8,3.582,8,8S196.422,160,192,160z"/>
		</g>
	</g>
	<g>
		<g>
			<path style="fill:#5C546A;" d="M240,160h-16c-4.422,0-8-3.582-8-8s3.578-8,8-8h16c4.422,0,8,3.582,8,8S244.422,160,240,160z"/>
		</g>
	</g>
	<g>
		<g>
			<path style="fill:#5C546A;" d="M288,160h-16c-4.422,0-8-3.582-8-8s3.578-8,8-8h16c4.422,0,8,3.582,8,8S292.422,160,288,160z"/>
		</g>
	</g>
	<g>
		<g>
			<path style="fill:#5C546A;" d="M336,160h-16c-4.422,0-8-3.582-8-8s3.578-8,8-8h16c4.422,0,8,3.582,8,8S340.422,160,336,160z"/>
		</g>
	</g>
	<g>
		<g>
			<path style="fill:#5C546A;" d="M384,160h-16c-4.422,0-8-3.582-8-8s3.578-8,8-8h16c4.422,0,8,3.582,8,8S388.422,160,384,160z"/>
		</g>
	</g>
	<g>
		<g>
			<path style="fill:#5C546A;" d="M432,160h-16c-4.422,0-8-3.582-8-8s3.578-8,8-8h16c4.422,0,8,3.582,8,8S436.422,160,432,160z"/>
		</g>
	</g>
	<g>
		<g>
			<path style="fill:#5C546A;" d="M480,160h-16c-4.422,0-8-3.582-8-8s3.578-8,8-8h16c4.422,0,8,3.582,8,8S484.422,160,480,160z"/>
		</g>
	</g>
</g>
<g>
</g>
<g>
</g>
<g>
</g>
<g>
</g>
<g>
</g>
<g>
</g>
<g>
</g>
<g>
</g>
<g>
</g>
<g>
</g>
<g>
</g>
<g>
</g>
<g>
</g>
<g>
</g>
<g>
</g>
</svg>
