<?xml version="1.0" encoding="UTF-8" standalone="no"?> <svg xmlns="http://www.w3.org/2000/svg" viewBox="0 0 32 32"><defs><style>.cls-1{fill:#3fa9f5;}.cls-2{fill:#2e3192;}</style></defs><title>Business, dollar, finance, invest, money, search</title><g id="_01" data-name="01"><path class="cls-1" d="M11.5,21a1,1,0,0,1,0-2c3.71,0,6.5-3,6.5-7a6.69,6.69,0,0,0-6.71-7,1,1,0,0,1,0-2A8.75,8.75,0,0,1,20,12C20,17.12,16.35,21,11.5,21Z"/><polygon class="cls-1" points="23.79 21.46 20.96 24.29 25.5 28.83 28.31 26.02 23.79 21.46"/><path class="cls-2" d="M12,21a9,9,0,1,1,9-9A9,9,0,0,1,12,21ZM12,5a7,7,0,1,0,7,7A7,7,0,0,0,12,5Z"/><path class="cls-2" d="M25.77,29.68a2,2,0,0,1-1.42-.58L18.7,23.44a1,1,0,0,1,0-1.41l2.83-2.83a1,1,0,0,1,1.41,0l5.66,5.65a2,2,0,0,1,0,2.83L27.18,29.1A2,2,0,0,1,25.77,29.68Zm-4.95-6.95,4.95,4.95,1.41-1.41-4.95-4.95Z"/><path class="cls-1" d="M11.16,17V15.86a4.76,4.76,0,0,1-2-.51l.36-1.41a4.17,4.17,0,0,0,2,.53c.68,0,1.15-.26,1.15-.74s-.38-.75-1.27-1.05c-1.28-.43-2.16-1-2.16-2.19a2.22,2.22,0,0,1,2-2.14V7.22h1.17v1a4.19,4.19,0,0,1,1.74.4L13.78,10a4,4,0,0,0-1.72-.41c-.78,0-1,.34-1,.68s.42.64,1.44,1c1.43.5,2,1.16,2,2.24a2.3,2.3,0,0,1-2.14,2.22V17Z"/><path class="cls-2" d="M20.68,22.46a1,1,0,0,1-.71-.29l-3.36-3.36A1,1,0,0,1,18,17.39l3.35,3.36a1,1,0,0,1-.7,1.71Z"/><circle class="cls-2" cx="24.04" cy="8.02" r="0.68"/><circle class="cls-2" cx="14.13" cy="23.54" r="0.68"/><circle class="cls-2" cx="22.29" cy="5.38" r="0.48"/><circle class="cls-2" cx="10.01" cy="23.06" r="0.48"/></g></svg>